<svg width="9" height="11" viewBox="0 0 9 11" fill="none" xmlns="http://www.w3.org/2000/svg">
<path id="Vector" d="M8.71673 5.95759C8.68361 5.87765 8.62753 5.80932 8.55559 5.76125C8.48364 5.71318 8.39906 5.68752 8.31253 5.68751H4.81252V0.437501C4.81252 0.321469 4.76643 0.210188 4.68438 0.128141C4.60233 0.0460934 4.49105 0 4.37502 0C4.25899 0 4.14771 0.0460934 4.06566 0.128141C3.98361 0.210188 3.93752 0.321469 3.93752 0.437501V5.68751H0.437508C0.350976 5.68751 0.266387 5.71317 0.194438 5.76125C0.12249 5.80932 0.0664136 5.87766 0.0333006 5.9576C0.000187524 6.03755 -0.00847479 6.12552 0.00840903 6.21039C0.0252929 6.29525 0.0669646 6.37321 0.128154 6.4344L4.06566 10.3719C4.14772 10.4539 4.259 10.5 4.37502 10.5C4.49104 10.5 4.60231 10.4539 4.68437 10.3719L8.62188 6.4344C8.68306 6.3732 8.72473 6.29525 8.74161 6.21038C8.7585 6.12551 8.74984 6.03754 8.71673 5.95759Z" fill="#EAEFF3"/>
</svg>
