<svg width="9" height="11" viewBox="0 0 9 11" fill="none" xmlns="http://www.w3.org/2000/svg">
<path id="Vector" d="M8.71673 4.54241C8.68361 4.62235 8.62753 4.69068 8.55559 4.73875C8.48364 4.78682 8.39906 4.81248 8.31253 4.81249H4.81252V10.0625C4.81252 10.1785 4.76643 10.2898 4.68438 10.3719C4.60233 10.4539 4.49105 10.5 4.37502 10.5C4.25899 10.5 4.14771 10.4539 4.06566 10.3719C3.98361 10.2898 3.93752 10.1785 3.93752 10.0625V4.81249H0.437508C0.350976 4.81249 0.266387 4.78683 0.194438 4.73875C0.12249 4.69068 0.0664136 4.62234 0.0333006 4.5424C0.000187524 4.46245 -0.00847479 4.37448 0.00840904 4.28961C0.0252929 4.20475 0.0669646 4.12679 0.128154 4.0656L4.06566 0.128094C4.14772 0.0460745 4.259 0 4.37502 0C4.49104 0 4.60231 0.0460745 4.68437 0.128094L8.62188 4.0656C8.68306 4.1268 8.72473 4.20475 8.74161 4.28962C8.7585 4.37449 8.74984 4.46246 8.71673 4.54241Z" fill="#EAEFF3"/>
</svg>
