<svg width="12" height="11" viewBox="0 0 12 11" fill="none" xmlns="http://www.w3.org/2000/svg">
<path fill-rule="evenodd" clip-rule="evenodd" d="M0.339623 0C0.152054 0 0 0.139383 0 0.311321C0 0.483258 0.152054 0.622642 0.339623 0.622642H1.36136C1.38787 0.622642 1.41354 0.631171 1.4339 0.646743C1.45425 0.662315 1.468 0.683941 1.47274 0.707852L1.81574 2.43715C1.81642 2.44096 1.81717 2.44475 1.818 2.44852L2.63906 6.58804C2.63974 6.59189 2.6405 6.59572 2.64133 6.59952L3.03829 8.60084C2.70422 8.84815 2.49057 9.22667 2.49057 9.65094C2.49057 10.396 3.14947 11 3.96226 11C4.77506 11 5.43396 10.396 5.43396 9.65094C5.43396 9.38349 5.34906 9.13421 5.20261 8.92453H8.60871C8.46226 9.13421 8.37736 9.38349 8.37736 9.65094C8.37736 10.396 9.03626 11 9.84905 11C10.6619 11 11.3208 10.396 11.3208 9.65094C11.3208 8.90588 10.6619 8.30189 9.84905 8.30189H3.66937L3.38121 6.84906H10.0812C10.3728 6.84906 10.6552 6.75523 10.8791 6.58394C11.103 6.41265 11.2542 6.17476 11.3064 5.91175L11.9945 2.44248C12.0125 2.35166 11.9856 2.25819 11.9211 2.18731C11.8566 2.11644 11.7611 2.07547 11.6604 2.07547H2.43438L2.14103 0.59647C2.10783 0.429096 2.0116 0.277711 1.86912 0.168709C1.72664 0.0597059 1.54694 0 1.36136 0H0.339623ZM2.55788 2.69811L3.25771 6.22642H10.0812C10.2138 6.22642 10.3421 6.18377 10.4439 6.10591C10.5457 6.02805 10.6144 5.91992 10.6381 5.80037L11.2534 2.69811H2.55788ZM9.0566 9.65094C9.0566 9.24975 9.41139 8.92453 9.84905 8.92453C10.2867 8.92453 10.6415 9.24975 10.6415 9.65094C10.6415 10.0521 10.2867 10.3774 9.84905 10.3774C9.41139 10.3774 9.0566 10.0521 9.0566 9.65094ZM3.96226 8.92453C3.5246 8.92453 3.16981 9.24975 3.16981 9.65094C3.16981 10.0521 3.5246 10.3774 3.96226 10.3774C4.39992 10.3774 4.75472 10.0521 4.75472 9.65094C4.75472 9.24975 4.39992 8.92453 3.96226 8.92453Z" fill="white"/>
</svg>
