<svg width="16" height="16" viewBox="0 0 16 16" fill="none" xmlns="http://www.w3.org/2000/svg">
<path d="M9.13171 7.99965L15.766 1.36531C15.9159 1.21525 16.0001 1.01182 16 0.799735C15.9999 0.587652 15.9157 0.384275 15.7657 0.23431C15.6157 0.0843453 15.4123 6.6542e-05 15.2003 3.93864e-08C14.9882 -6.64632e-05 14.7848 0.084085 14.6347 0.233956L8.00035 6.8683L1.36602 0.233956C1.21596 0.084085 1.01253 -6.64632e-05 0.800444 3.93864e-08C0.588362 6.6542e-05 0.384985 0.0843453 0.23502 0.23431C0.0850549 0.384275 0.000776077 0.587652 0.000709574 0.799735C0.000643072 1.01182 0.0847946 1.21525 0.234665 1.36531L6.86901 7.99965L0.234665 14.634C0.160303 14.7083 0.101304 14.7964 0.0610395 14.8935C0.0207747 14.9906 3.29948e-05 15.0947 3.93333e-08 15.1998C-3.29161e-05 15.3049 0.0206433 15.4089 0.0608473 15.506C0.101051 15.6031 0.159995 15.6914 0.23431 15.7657C0.308626 15.84 0.396856 15.8989 0.49396 15.9392C0.591065 15.9794 0.695139 16 0.800237 16C0.905334 16 1.0094 15.9792 1.10647 15.939C1.20355 15.8987 1.29175 15.8397 1.36602 15.7653L8.00035 9.131L14.6347 15.7653C14.7848 15.9152 14.9882 15.9994 15.2003 15.9993C15.4123 15.9992 15.6157 15.9149 15.7657 15.765C15.9157 15.615 15.9999 15.4116 16 15.1996C16.0001 14.9875 15.9159 14.784 15.766 14.634L9.13171 7.99965Z" fill="white"/>
</svg>
