<svg width="29" height="29" viewBox="0 0 29 29" fill="none" xmlns="http://www.w3.org/2000/svg">
<path d="M15.0744 14.4996L15.4279 14.146L22.9432 6.6308L15.0744 14.4996ZM15.0744 14.4996L15.4279 14.8531M15.0744 14.4996L15.4279 14.8531M15.4279 14.8531L22.9432 22.3684L15.4279 14.8531ZM14.4999 13.9251L14.1463 13.5715L6.63112 6.0563C6.63108 6.05627 6.63104 6.05623 6.63101 6.05619C6.55482 5.98016 6.45156 5.93747 6.34392 5.9375C6.23622 5.93753 6.13295 5.98033 6.0568 6.05648C5.98065 6.13263 5.93785 6.23591 5.93782 6.3436C5.93778 6.45125 5.98047 6.5545 6.05651 6.63069C6.05655 6.63073 6.05658 6.63076 6.05662 6.6308L13.5718 14.146L13.9254 14.4996L13.5718 14.8531L6.0564 22.3686L6.05617 22.3688C6.01841 22.4065 5.98845 22.4513 5.96801 22.5006C5.94756 22.5499 5.93703 22.6027 5.93701 22.6561C5.93699 22.7095 5.94749 22.7623 5.96791 22.8116C5.98833 22.8609 6.01826 22.9057 6.05599 22.9435C6.09373 22.9812 6.13853 23.0111 6.18784 23.0316L5.99725 23.4919L6.18785 23.0316C6.23716 23.052 6.29001 23.0625 6.34337 23.0625C6.39674 23.0624 6.44958 23.0519 6.49888 23.0315C6.54818 23.011 6.59296 22.9811 6.63067 22.9433L6.63089 22.9431L14.1463 15.4276L14.4999 15.0741L14.8534 15.4276L22.3687 22.9429L14.4999 13.9251ZM14.4999 13.9251L14.8534 13.5715M14.4999 13.9251L14.8534 13.5715M14.8534 13.5715L22.3687 6.0563L14.8534 13.5715ZM23.062 6.3436C23.062 6.45119 23.0194 6.5544 22.9434 6.63058L22.3689 6.05608C22.4451 5.98012 22.5483 5.93747 22.6559 5.9375C22.7636 5.93753 22.8668 5.98033 22.943 6.05648C23.0191 6.13263 23.0619 6.23591 23.062 6.3436ZM22.6559 23.0617C22.5483 23.0617 22.4451 23.019 22.3689 22.9431L22.9434 22.3686C23.0194 22.4448 23.062 22.548 23.062 22.6556C23.0619 22.7633 23.0191 22.8665 22.943 22.9427C22.8668 23.0188 22.7636 23.0616 22.6559 23.0617Z" stroke="white"/>
</svg>
