<svg width="16" height="14" viewBox="0 0 16 14" fill="none" xmlns="http://www.w3.org/2000/svg">
<path d="M3.96514 10.9375L3.96532 10.9373L3.96514 10.9375ZM3.96514 10.9375L3.96513 10.9375L3.96514 10.9375ZM12.6294 3.0625L12.5779 3.11851L12.6294 3.0625ZM12.6294 3.0625L12.6294 3.06247M12.6294 3.0625L12.6294 3.06247M12.6294 3.06247L12.5777 3.00634L12.5754 3.00388M12.6294 3.06247L12.6294 3.0625L12.9142 3.37165L12.6298 3.0625L12.6296 3.06228M12.6294 3.06247L12.6296 3.06228M12.6294 3.06247L12.6296 3.06228M12.5754 3.00388L12.5757 3.00366L12.5777 3.00588L12.6296 3.06228M12.5754 3.00388L12.5196 3.05521L12.5754 3.00388ZM8.97005 6.9998L9.30856 6.63181L9.33932 6.66011L8.97005 6.9998ZM8.97005 6.9998L9.30856 7.36778L9.33932 7.33948L8.97005 6.9998ZM4.03087 10.9008L4.04062 10.9263C4.04062 10.9263 4.04062 10.9263 4.04062 10.9263L4.03087 10.9008ZM4.01904 10.9961L4.01927 10.9959L4.01904 10.9961Z" stroke="white"/>
</svg>
