<svg width="16" height="16" viewBox="0 0 16 16" fill="none" xmlns="http://www.w3.org/2000/svg">
<path d="M12.8162 3.65451H10.4553V3.18229C10.4549 2.8067 10.3055 2.44661 10.0399 2.18103C9.77432 1.91544 9.41423 1.76605 9.03864 1.76562H6.20531C5.82972 1.76605 5.46963 1.91544 5.20404 2.18103C4.93846 2.44661 4.78907 2.8067 4.78864 3.18229V3.65451H2.4273C2.30206 3.65451 2.18195 3.70427 2.09339 3.79283C2.00483 3.88138 1.95508 4.0015 1.95508 4.12674C1.95508 4.25198 2.00483 4.37209 2.09339 4.46065C2.18195 4.54921 2.30206 4.59896 2.4273 4.59896H2.89952V13.099C2.89981 13.3494 2.9994 13.5894 3.17646 13.7665C3.35352 13.9435 3.59357 14.0431 3.84397 14.0434H11.3995C11.6499 14.0431 11.89 13.9435 12.067 13.7665C12.2441 13.5894 12.3437 13.3494 12.344 13.099V4.59896H12.8162C12.9414 4.59896 13.0615 4.54921 13.1501 4.46065C13.2387 4.37209 13.2884 4.25198 13.2884 4.12674C13.2884 4.0015 13.2387 3.88138 13.1501 3.79283C13.0615 3.70427 12.9414 3.65451 12.8162 3.65451ZM6.67753 10.7379C6.67753 10.8631 6.62778 10.9832 6.53922 11.0718C6.45066 11.1603 6.33055 11.2101 6.20531 11.2101C6.08007 11.2101 5.95996 11.1603 5.8714 11.0718C5.78284 10.9832 5.73309 10.8631 5.73309 10.7379V6.96007C5.73309 6.83483 5.78284 6.71472 5.8714 6.62616C5.95996 6.5376 6.08007 6.48785 6.20531 6.48785C6.33055 6.48785 6.45066 6.5376 6.53922 6.62616C6.62778 6.71472 6.67753 6.83483 6.67753 6.96007V10.7379ZM9.51086 10.7379C9.51086 10.8631 9.46111 10.9832 9.37255 11.0718C9.28399 11.1603 9.16388 11.2101 9.03864 11.2101C8.9134 11.2101 8.79329 11.1603 8.70473 11.0718C8.61617 10.9832 8.56642 10.8631 8.56642 10.7379V6.96007C8.56642 6.83483 8.61617 6.71472 8.70473 6.62616C8.79329 6.5376 8.9134 6.48785 9.03864 6.48785C9.16388 6.48785 9.28399 6.5376 9.37255 6.62616C9.46111 6.71472 9.51086 6.83483 9.51086 6.96007V10.7379ZM9.51086 3.65451H5.73309V3.18229C5.73323 3.05709 5.78303 2.93707 5.87156 2.84854C5.96008 2.76001 6.08011 2.71021 6.20531 2.71007H9.03864C9.16384 2.71021 9.28387 2.76001 9.3724 2.84854C9.46092 2.93707 9.51072 3.05709 9.51086 3.18229V3.65451Z" fill="white"/>
</svg>
