<svg width="12" height="14" viewBox="0 0 12 14" fill="none" xmlns="http://www.w3.org/2000/svg">
<g id="Union">
<path d="M0.669499 3.52338V10.2811H1.51953V7.32726H5.11091V10.2811H5.96094V7.32726H9.63732V10.2811H10.4873V3.52338H9.63732V6.47723H5.96094V3.52338H5.11091V6.47723H1.51953V3.52338H0.669499Z" fill="#EAEFF3"/>
<path d="M0.982522 2.39709V0.530419L0.567707 0.632423L0.458904 0.204007L1.14233 0H1.49934V2.39709H0.982522Z" fill="#EAEFF3"/>
<path d="M0 13.4815V14H2.20158V13.4347H0.905282L1.3898 13.0607C1.58814 12.9077 1.73689 12.783 1.83607 12.6867C1.93524 12.5875 2.01599 12.4742 2.07832 12.3467C2.14066 12.2164 2.17183 12.0704 2.17183 11.9089C2.17183 11.6284 2.07832 11.4046 1.89132 11.2374C1.70431 11.0674 1.45639 10.9824 1.14754 10.9824C0.895365 10.9824 0.685692 11.032 0.518519 11.1311C0.35418 11.2303 0.19409 11.3862 0.0382518 11.5987L0.497268 11.9684C0.613438 11.8239 0.715442 11.7219 0.803278 11.6624C0.893948 11.6001 0.994535 11.5689 1.10504 11.5689C1.22404 11.5689 1.32038 11.6029 1.39405 11.6709C1.46772 11.7389 1.50455 11.8338 1.50455 11.9557C1.50455 12.0747 1.46772 12.1838 1.39405 12.2829C1.32038 12.3793 1.18579 12.5082 0.990285 12.6697L0 13.4815Z" fill="#EAEFF3"/>
<path d="M5.55871 2.43789C5.1711 2.43789 4.86169 2.30075 4.63048 2.02647L4.99089 1.68306C5.1609 1.87347 5.35244 1.96867 5.56551 1.96867C5.66525 1.96867 5.74572 1.9426 5.80692 1.89047C5.87039 1.83607 5.90213 1.76353 5.90213 1.67286C5.90213 1.57539 5.86132 1.50059 5.77972 1.44845C5.69812 1.39632 5.58365 1.37025 5.43631 1.37025H5.2187L5.1371 1.03704L5.70492 0.465817H4.76989V0.0170012H6.37814V0.411415L5.77632 0.986035C6.20247 1.05857 6.41554 1.28298 6.41554 1.65926C6.41554 1.8882 6.33734 2.07521 6.18094 2.22028C6.0268 2.36535 5.81939 2.43789 5.55871 2.43789Z" fill="#EAEFF3"/>
<path fill-rule="evenodd" clip-rule="evenodd" d="M5.80484 13.3582V14H6.42962V13.3582H6.82913V12.827H6.42962V11.0036H5.8771L4.24504 12.895L4.35129 13.3582H5.80484ZM5.80484 12.827H5.01432L5.80484 11.9004V12.827Z" fill="#EAEFF3"/>
<path d="M10.0498 2.43789C9.70524 2.43789 9.40829 2.31888 9.15895 2.08087L9.47516 1.70346C9.66557 1.87573 9.85484 1.96187 10.043 1.96187C10.1677 1.96187 10.2651 1.9324 10.3354 1.87347C10.4057 1.81453 10.4408 1.7318 10.4408 1.62526C10.4408 1.52552 10.4023 1.44732 10.3252 1.39065C10.2481 1.33171 10.1461 1.30225 10.0192 1.30225C9.89224 1.30225 9.75964 1.33171 9.62137 1.39065L9.31876 1.19004L9.38676 0.0170012H10.8488V0.476017H9.83557L9.80837 0.887432C9.91718 0.860231 10.0214 0.846631 10.1212 0.846631C10.3683 0.846631 10.5689 0.910099 10.723 1.03704C10.8771 1.16397 10.9542 1.35665 10.9542 1.61506C10.9542 1.86667 10.8715 2.06727 10.706 2.21688C10.5428 2.36422 10.3241 2.43789 10.0498 2.43789Z" fill="#EAEFF3"/>
<path fill-rule="evenodd" clip-rule="evenodd" d="M8.9049 11.0249V14H9.55942V13.048H10.0652L10.7112 14H11.4762L10.7495 12.9375C11.1745 12.7788 11.387 12.4714 11.387 12.0152C11.387 11.7262 11.302 11.4967 11.132 11.3267C10.9308 11.1255 10.6418 11.0249 10.2649 11.0249H8.9049ZM10.2224 12.4699H9.55942V11.6157H10.2097C10.3712 11.6157 10.4973 11.6525 10.588 11.7262C10.6786 11.797 10.724 11.9018 10.724 12.0407C10.724 12.171 10.68 12.2759 10.5922 12.3552C10.5044 12.4317 10.3811 12.4699 10.2224 12.4699Z" fill="#EAEFF3"/>
</g>
</svg>
